# xmcd
#
# Track frame offsets:
#	150
#	20626
#	36602
#	57082
#	76617
#	94032
#	107907
#	126797
#	148127
#
# Disc length: 2254 seconds
#
# Revision: 1
# Processed by: cddbd v1.5.2PL0 Copyright (c) Steve Scherf et al.
# Submitted via: audiograbber 1.83.01
#
DISCID=7708cc09
DTITLE=Ivana Kindl - Live in "Sax"
DYEAR=2005
DGENRE=Soul
TTITLE0=Work It Out - Whatta Man
TTITLE1=Ain't No Sunshine
TTITLE2=Give Me One Reason
TTITLE3=Free Your MInd
TTITLE4=Groove Is In The Heart
TTITLE5=Piece Of My Heart
TTITLE6=Is This Love
TTITLE7=I'm Every Woman
TTITLE8=Fields Of Gold
EXTD=
EXTT0=
EXTT1=
EXTT2=
EXTT3=
EXTT4=
EXTT5=
EXTT6=
EXTT7=
EXTT8=
PLAYORDER=
